<svg width="48" height="48" viewBox="0 0 48 48" fill="none" xmlns="http://www.w3.org/2000/svg">
<path d="M25.0003 16.0001H22.0003V28.0001L31.5003 33.7001L33.0003 31.2401L25.0003 26.5001V16.0001ZM34.6743 3.62012L43.8883 11.3101L41.3283 14.3801L32.1083 6.69412L34.6743 3.62012ZM13.3263 3.62012L15.8903 6.69212L6.67426 14.3801L4.11426 11.3081L13.3263 3.62012ZM24.0003 8.00012C14.0603 8.00012 6.00026 16.0601 6.00026 26.0001C6.00026 35.9401 14.0603 44.0001 24.0003 44.0001C33.9403 44.0001 42.0003 35.9401 42.0003 26.0001C42.0003 16.0601 33.9403 8.00012 24.0003 8.00012ZM24.0003 40.0001C16.2803 40.0001 10.0003 33.7201 10.0003 26.0001C10.0003 18.2801 16.2803 12.0001 24.0003 12.0001C31.7203 12.0001 38.0003 18.2801 38.0003 26.0001C38.0003 33.7201 31.7203 40.0001 24.0003 40.0001Z" fill="#323232"/>
</svg>
