<svg width="18" height="18" viewBox="0 0 18 18" fill="none" xmlns="http://www.w3.org/2000/svg">
<path d="M13.5 9.74997H12.99L11.49 11.25H12.9225L14.25 12.75H3.75L5.085 11.25H6.6225L5.1225 9.74997H4.5L2.25 12V15C2.25 15.825 2.9175 16.5 3.7425 16.5H14.25C15.075 16.5 15.75 15.8325 15.75 15V12L13.5 9.74997ZM12.75 5.96247L9.0375 9.67497L6.3825 7.01997L10.095 3.30747L12.75 5.96247ZM9.57 1.71747L4.7925 6.49497C4.5 6.78747 4.5 7.25997 4.7925 7.55247L8.505 11.265C8.7975 11.5575 9.27 11.5575 9.5625 11.265L14.3325 6.49497C14.625 6.20247 14.625 5.72997 14.3325 5.43747L10.62 1.72497C10.335 1.42497 9.8625 1.42497 9.57 1.71747Z" fill="white"/>
</svg>
