<svg width="48" height="48" viewBox="0 0 48 48" fill="none" xmlns="http://www.w3.org/2000/svg">
<path d="M24 4C12.96 4 4 12.96 4 24C4 35.04 12.96 44 24 44C35.04 44 44 35.04 44 24C44 12.96 35.04 4 24 4ZM24 40C15.18 40 8 32.82 8 24C8 15.18 15.18 8 24 8C32.82 8 40 15.18 40 24C40 32.82 32.82 40 24 40ZM24.62 22.28C21.08 21.38 19.94 20.4 19.94 18.94C19.94 17.26 21.52 16.08 24.14 16.08C26.9 16.08 27.94 17.4 28.02 19.36H31.44C31.34 16.68 29.7 14.22 26.46 13.42V10H21.8V13.38C18.78 14.02 16.36 15.98 16.36 19C16.36 22.58 19.34 24.38 23.68 25.42C27.58 26.34 28.36 27.72 28.36 29.16C28.36 30.22 27.58 31.94 24.16 31.94C20.96 31.94 19.7 30.5 19.52 28.66H16.08C16.28 32.06 18.8 33.98 21.8 34.6V38H26.48V34.66C29.52 34.08 31.92 32.34 31.94 29.12C31.92 24.72 28.14 23.2 24.62 22.28Z" fill="#323232"/>
</svg>
