<svg width="18" height="18" viewBox="0 0 18 18" fill="none" xmlns="http://www.w3.org/2000/svg">
<path d="M9.55 0.25C9.66046 0.25 9.75 0.339543 9.75 0.45V8.25H17.55C17.6605 8.25 17.75 8.33954 17.75 8.45V9.55C17.75 9.66046 17.6605 9.75 17.55 9.75H9.75V17.55C9.75 17.6605 9.66046 17.75 9.55 17.75H8.45C8.33954 17.75 8.25 17.6605 8.25 17.55V9.75H0.45C0.339543 9.75 0.25 9.66046 0.25 9.55V8.45C0.25 8.33954 0.339543 8.25 0.45 8.25H8.25V0.45C8.25 0.339543 8.33954 0.25 8.45 0.25H9.55Z" fill="#999999"/>
</svg>
