<svg width="13" height="12" viewBox="0 0 13 12" fill="none" xmlns="http://www.w3.org/2000/svg">
<path d="M4.8125 2.96857H5.96719V8.2545C5.96719 8.32325 6.02344 8.3795 6.09219 8.3795H7.02969C7.09844 8.3795 7.15469 8.32325 7.15469 8.2545V2.96857H8.3125C8.41719 2.96857 8.475 2.84825 8.41094 2.767L6.66094 0.551379C6.64924 0.536438 6.6343 0.524356 6.61725 0.516046C6.60019 0.507736 6.58147 0.503418 6.5625 0.503418C6.54353 0.503418 6.52481 0.507736 6.50775 0.516046C6.49069 0.524356 6.47576 0.536438 6.46406 0.551379L4.71406 2.76544C4.65 2.84825 4.70781 2.96857 4.8125 2.96857ZM12.2812 7.78575H11.3438C11.275 7.78575 11.2188 7.842 11.2188 7.91075V10.317H1.90625V7.91075C1.90625 7.842 1.85 7.78575 1.78125 7.78575H0.84375C0.775 7.78575 0.71875 7.842 0.71875 7.91075V11.0045C0.71875 11.2811 0.942187 11.5045 1.21875 11.5045H11.9062C12.1828 11.5045 12.4062 11.2811 12.4062 11.0045V7.91075C12.4062 7.842 12.35 7.78575 12.2812 7.78575Z" fill="black" fill-opacity="0.85"/>
</svg>
