<svg width="16" height="16" viewBox="0 0 16 16" fill="none" xmlns="http://www.w3.org/2000/svg">
<path d="M13.3546 8.7048C13.3846 8.4798 13.3996 8.2473 13.3996 7.9998C13.3996 7.75981 13.3846 7.5198 13.3471 7.2948L14.8696 6.1098C15.0046 6.0048 15.0421 5.8023 14.9596 5.6523L13.5196 3.1623C13.4296 2.9973 13.2421 2.9448 13.0771 2.9973L11.2846 3.7173C10.9096 3.4323 10.5121 3.1923 10.0696 3.0123L9.79959 1.1073C9.76959 0.927305 9.61959 0.799805 9.43959 0.799805H6.55959C6.37959 0.799805 6.23709 0.927305 6.20709 1.1073L5.93709 3.0123C5.49459 3.1923 5.08959 3.4398 4.72209 3.7173L2.92959 2.9973C2.76459 2.9373 2.57709 2.9973 2.48709 3.1623L1.05459 5.6523C0.964594 5.8098 0.994594 6.0048 1.14459 6.1098L2.66709 7.2948C2.62959 7.5198 2.59959 7.7673 2.59959 7.9998C2.59959 8.23231 2.61459 8.4798 2.65209 8.7048L1.12959 9.8898C0.994594 9.99481 0.957094 10.1973 1.03959 10.3473L2.47959 12.8373C2.56959 13.0023 2.75709 13.0548 2.92209 13.0023L4.71459 12.2823C5.08959 12.5673 5.48709 12.8073 5.92959 12.9873L6.19959 14.8923C6.23709 15.0723 6.37959 15.1998 6.55959 15.1998H9.43959C9.61959 15.1998 9.76959 15.0723 9.79209 14.8923L10.0621 12.9873C10.5046 12.8073 10.9096 12.5673 11.2771 12.2823L13.0696 13.0023C13.2346 13.0623 13.4221 13.0023 13.5121 12.8373L14.9521 10.3473C15.0421 10.1823 15.0046 9.99481 14.8621 9.8898L13.3546 8.7048ZM7.99959 10.6998C6.51459 10.6998 5.29959 9.48481 5.29959 7.9998C5.29959 6.5148 6.51459 5.2998 7.99959 5.2998C9.48459 5.2998 10.6996 6.5148 10.6996 7.9998C10.6996 9.48481 9.48459 10.6998 7.99959 10.6998Z" fill="black"/>
</svg>
