<svg width="12" height="12" viewBox="0 0 12 12" fill="none" xmlns="http://www.w3.org/2000/svg">
<path d="M0 0H12V12C5.37258 12 0 6.62742 0 0Z" fill="black" fill-opacity="0.7"/>
<path d="M5.32612 3.01482L7.02217 4.72756L8.7181 3.01482C8.72749 3.00534 8.74028 3 8.75363 3H9.13806C9.16568 3 9.18806 3.02239 9.18806 3.05C9.18806 3.06318 9.18286 3.07582 9.17359 3.08518L7.28473 4.99273L9.18784 6.91482C9.20726 6.93444 9.20711 6.9661 9.18748 6.98553C9.17812 6.9948 9.16548 7 9.1523 7H8.76799C8.75464 7 8.74185 6.99466 8.73246 6.98518L7.02217 5.25789L5.31177 6.98518C5.30238 6.99466 5.28958 7 5.27624 7H4.89204C4.86443 7 4.84204 6.97761 4.84204 6.95C4.84204 6.93683 4.84724 6.92418 4.85651 6.91482L6.7596 4.99273L4.87075 3.08518C4.85132 3.06556 4.85148 3.0339 4.8711 3.01447C4.88046 3.0052 4.89311 3 4.90628 3H5.2906C5.30394 3 5.31673 3.00534 5.32612 3.01482Z" fill="white"/>
</svg>
