<svg width="87" height="84" viewBox="0 0 87 84" fill="none" xmlns="http://www.w3.org/2000/svg">
<path d="M86.2159 31.9425C88.3783 46.6852 84.9095 59.9325 74.1804 70.5003C61.1388 83.3474 45.3733 87.0164 28.2513 80.54C10.5178 73.8358 1.54543 60.0381 0 41.2818C3.25206 52.3833 9.40598 61.389 19.2344 67.6596C29.0629 73.9303 39.7808 75.8482 51.188 73.5912C69.3829 69.9889 85.1263 53.8342 86.2159 31.9425Z" fill="#AB9362"/>
<path d="M67.4206 33.249C62.3452 26.4002 55.3574 22.948 47.0076 22.0919C47.0632 20.0906 46.5462 19.2012 45.3955 19.2012C44.2893 19.2067 43.7445 20.1295 43.8167 22.0196C37.0791 22.3754 30.9975 24.5157 25.8887 29.0519C20.7577 33.6103 17.8169 39.2417 17.5334 46.2739C35.7616 42.7661 53.7564 42.8718 71.8568 45.9737C71.69 41.2318 70.189 36.9958 67.4206 33.249ZM33.1766 28.8629C30.4082 30.803 28.4125 33.4213 27.1951 36.5566C26.6836 37.8741 25.9721 38.6024 24.5767 38.7636C23.8652 38.847 23.1703 39.0971 22.3809 39.2917C24.3155 31.6368 31.5756 26.1945 37.068 26.6337C35.7227 27.3953 34.3774 28.0234 33.1766 28.8629Z" fill="#AB9362"/>
<path d="M4.79737 48.8033C3.76894 44.2726 3.52434 39.9032 4.16919 35.5282C6.20938 21.675 13.4695 11.4685 25.9052 5.03107C31.4254 2.1737 37.3792 0.934019 43.5831 0.972933C44.1057 0.978492 44.8895 1.25645 45.0674 1.63446C45.262 2.04028 45.0618 2.89082 44.7172 3.24104C43.8611 4.11938 42.8493 4.85874 41.8487 5.58698C41.4151 5.90384 40.8591 6.0595 40.3644 6.29854C37.4848 7.72722 36.9678 9.46721 38.6022 12.2412C19.0564 16.6496 7.77704 28.7461 4.79737 48.8033Z" fill="#A12330"/>
<path d="M49.6316 12.2356C54.229 7.19353 54.2568 5.54248 49.8762 1.65112C67.3095 3.72466 83.3641 20.691 82.7693 40.5814C77.2046 24.7102 66.2755 15.2153 49.6316 12.2356Z" fill="#A12330"/>
<path d="M22.6642 48.3307C33.2487 44.4337 43.4386 44.1947 53.0947 50.8322C53.5728 51.1602 54.2843 51.2659 54.8903 51.277C57.8755 51.3326 61.6501 54.0398 61.3055 56.7749C60.277 55.8521 59.3542 54.9626 58.3591 54.1621C57.9978 53.8731 57.4586 53.8175 56.9972 53.6507C57.1973 54.0732 57.2973 54.6013 57.6198 54.9015C58.6816 55.891 59.8823 56.7304 60.9052 57.7533C61.4833 58.3315 61.8113 59.1598 62.2561 59.8769C62.1226 59.9769 61.9892 60.077 61.8614 60.1771C60.6161 59.132 59.3987 58.0535 58.1145 57.0584C57.6754 56.7193 57.0694 56.6026 56.5413 56.3802C56.8137 56.8694 56.9916 57.4587 57.3807 57.8256C58.5648 58.943 59.8267 59.9714 61.0608 61.0387C60.9775 61.1777 60.8996 61.3167 60.8162 61.4501C59.9435 60.9943 59.0318 60.6051 58.209 60.0714C57.4586 59.5822 56.8526 58.8818 56.1077 58.3815C55.663 58.0869 55.0848 57.9979 54.5623 57.8145C54.868 58.2981 55.1071 58.8373 55.4907 59.2487C56.0521 59.8491 56.7136 60.355 57.5308 61.0776C55.4462 61.1777 54.2621 60.1159 53.406 58.8429C52.6222 57.6699 51.8105 56.2857 51.7216 54.9404C51.6271 53.6062 51.0878 52.9892 50.1428 52.3499C42.1155 46.8853 33.4489 46.5351 24.3987 49.0367C23.7705 49.209 22.9144 49.9039 22.6642 48.3307Z" fill="#A62332"/>
<path d="M23.5593 50.9602C23.9874 50.7823 24.4043 50.5154 24.8546 50.4376C33.4267 48.9089 41.2706 50.2208 47.8636 56.397C48.1972 56.7138 48.7309 56.8528 49.1923 56.9973C51.5048 57.7089 53.356 60.1605 53.3227 62.5119C53.3004 64.2742 52.0608 65.2859 50.3486 64.9302C48.0193 64.4465 45.6845 61.5002 45.9847 59.1543C46.1125 58.1703 45.7456 57.6755 45.1341 57.1196C39.6418 52.1609 33.0987 50.6989 25.9219 51.3159C25.1937 51.3771 24.4655 51.4494 23.7317 51.5161C23.6761 51.3271 23.6149 51.1436 23.5593 50.9602Z" fill="#A62332"/>
<path d="M42.3268 11.4128C44.1113 10.401 45.8569 9.53383 47.4746 8.46649C49.3257 7.24349 50.5932 5.62023 50.0373 3.13532C51.8774 4.32497 52.4166 6.34847 51.0602 7.95505C49.9873 9.22252 48.6031 10.2954 47.1966 11.2016C44.6728 12.8359 44.4838 13.6531 46.4962 15.8267C46.5851 15.9212 46.6296 16.0546 46.8297 16.3993C44.9563 15.4987 43.3164 14.7371 42.3324 13.0249C42.0767 12.5746 41.6208 12.2078 41.1872 11.8964C38.0908 9.68393 38.202 8.42757 41.5541 6.74317C42.8383 6.09831 44.078 5.30893 45.1953 4.40835C46.5517 3.31321 47.2022 1.82338 46.8408 0C49.1423 1.11182 48.8199 4.09705 47.3356 5.38675C46.0625 6.49301 44.6394 7.44917 43.2274 8.3831C41.8877 9.27255 41.632 9.90073 42.3268 11.4128Z" fill="#AB9362"/>
</svg>
